C:\Users\r0593348\3dpredictsim\Results\Batchsim_tmt_linear\Pog_s1_tmt_bCst_d02_k1000_ig24_act_GRF.mot
nRows=20
nColumns=19

name C:\Users\r0593348\3dpredictsim\Results\Batchsim_tmt_linear\Pog_s1_tmt_bCst_d02_k1000_ig24_act_GRF.mot
datacolumns 19
datarows 20
range 0.0000000000 0.2341050066
endheader
time 	ground_force_vx	ground_force_vy	ground_force_vz	ground_force_px	ground_force_py	ground_force_pz	1_ground_force_vx	1_ground_force_vy	1_ground_force_vz	1_ground_force_px	1_ground_force_py	1_ground_force_pz	ground_torque_x	ground_torque_y	ground_torque_z	1_ground_torque_x	1_ground_torque_y	1_ground_torque_z
        0.0000000000	      -46.5900037555	       36.2242513416	       11.1223360553	        0.1933062768	        0.0000000000	        0.0507894511	      108.1483121518	      437.5737497499	       -1.5805654104	       -0.3567205106	        0.0000000000	       -0.0356797282	        0.0000000000	        0.0000000000	        0.0000000000	        0.0000000000	        0.0000000000	        0.0000000000	
        0.0123213161	     -118.7910323621	      121.1136657157	       41.3956678477	        0.2016001829	        0.0000000000	        0.0489125263	       77.6674032524	      341.1842545269	       -6.3528944325	       -0.3496363301	        0.0000000000	       -0.0331118006	        0.0000000000	        0.0000000000	        0.0000000000	        0.0000000000	        0.0000000000	        0.0000000000	
        0.0246426323	      -58.6920599558	      301.5346101641	       15.7840546287	        0.2072165047	        0.0000000000	        0.0470948049	       44.2274633410	      233.2937962363	      -13.2011747516	       -0.3372255110	        0.0000000000	       -0.0281345944	        0.0000000000	        0.0000000000	        0.0000000000	        0.0000000000	        0.0000000000	        0.0000000000	
        0.0369639484	      -57.0140408921	      503.6853696922	       -4.6353710554	        0.2103288283	        0.0000000000	        0.0469542636	       27.6265006414	      177.0051373047	      -13.0320415482	       -0.3284684504	        0.0000000000	       -0.0238990911	        0.0000000000	        0.0000000000	        0.0000000000	        0.0000000000	        0.0000000000	        0.0000000000	
        0.0492852645	     -101.3818021166	      712.4800646015	      -13.7500065830	        0.2187625906	        0.0000000000	        0.0489149420	       25.4643747221	      139.1526790760	      -13.8253592516	       -0.3281084814	        0.0000000000	       -0.0240779224	        0.0000000000	        0.0000000000	        0.0000000000	        0.0000000000	        0.0000000000	        0.0000000000	
        0.0616065807	     -134.9055831988	      854.8926956116	      -19.5538618137	        0.2269721217	        0.0000000000	        0.0508948733	       16.4287081854	       91.1899197983	      -14.6213972520	       -0.3278182922	        0.0000000000	       -0.0243593129	        0.0000000000	        0.0000000000	        0.0000000000	        0.0000000000	        0.0000000000	        0.0000000000	
        0.0739278968	     -142.6984426861	      887.7788115917	      -20.3964439720	        0.2323344669	        0.0000000000	        0.0520457272	        0.8689742820	       36.5771179627	       -8.2449168255	       -0.3284246723	        0.0000000000	       -0.0243994888	        0.0000000000	        0.0000000000	        0.0000000000	        0.0000000000	        0.0000000000	        0.0000000000	
        0.0862492130	     -132.9130565648	      867.1760455607	      -19.4319666390	        0.2362135329	        0.0000000000	        0.0527156330	        0.2194813230	       -0.2189070508	        0.0043896711	        0.0000000000	        0.0000000000	        0.0000000000	        0.0000000000	        0.0000000000	        0.0000000000	        0.0000000000	        0.0000000000	        0.0000000000	
        0.0985705291	     -116.7315389092	      824.8942687558	      -18.6291642622	        0.2398373134	        0.0000000000	        0.0530659119	        0.0016410619	       -0.0013054425	       -0.0000966726	        0.0000000000	        0.0000000000	        0.0000000000	        0.0000000000	        0.0000000000	        0.0000000000	        0.0000000000	        0.0000000000	        0.0000000000	
        0.1108918452	     -101.3913723287	      779.6487497729	      -18.0011069914	        0.2437390764	        0.0000000000	        0.0531529280	        0.0031501877	       -0.0021413001	       -0.0002266166	        0.0000000000	        0.0000000000	        0.0000000000	        0.0000000000	        0.0000000000	        0.0000000000	        0.0000000000	        0.0000000000	        0.0000000000	
        0.1232131614	      -89.3239810059	      740.4347121521	      -17.7369743211	        0.2481359983	        0.0000000000	        0.0530746182	        0.0381086813	       -0.0231333548	       -0.0028879488	        0.0000000000	        0.0000000000	        0.0000000000	        0.0000000000	        0.0000000000	        0.0000000000	        0.0000000000	        0.0000000000	        0.0000000000	
        0.1355344775	      -79.6910814581	      711.3935102622	      -18.0472838955	        0.2533682451	        0.0000000000	        0.0527656353	       -0.2172097981	        0.1209171368	        0.0170920581	        0.0000000000	        0.0000000000	        0.0000000000	        0.0000000000	        0.0000000000	        0.0000000000	        0.0000000000	        0.0000000000	        0.0000000000	
        0.1478557936	      -70.2197946015	      685.1633019883	      -18.4746145884	        0.2586418704	        0.0000000000	        0.0524157434	       -0.1563847181	        0.0820718519	        0.0117929431	        0.0000000000	        0.0000000000	        0.0000000000	        0.0000000000	        0.0000000000	        0.0000000000	        0.0000000000	        0.0000000000	        0.0000000000	
        0.1601771098	      -60.9667602168	      660.0577123517	      -19.2252073966	        0.2635665194	        0.0000000000	        0.0521497942	       -0.0916747808	        0.0458142165	        0.0067830941	        0.0000000000	        0.0000000000	        0.0000000000	        0.0000000000	        0.0000000000	        0.0000000000	        0.0000000000	        0.0000000000	        0.0000000000	
        0.1724984259	      -52.3765452308	      638.6100791529	      -19.6034901400	        0.2683569554	        0.0000000000	        0.0519668570	       -0.0632961288	        0.0303735472	        0.0046423956	        0.0000000000	        0.0000000000	        0.0000000000	        0.0000000000	        0.0000000000	        0.0000000000	        0.0000000000	        0.0000000000	        0.0000000000	
        0.1848197421	      -44.8436811158	      621.1020720672	      -20.0367761028	        0.2731478945	        0.0000000000	        0.0518220358	       -0.0543954169	        0.0252266117	        0.0039649570	        0.0000000000	        0.0000000000	        0.0000000000	        0.0000000000	        0.0000000000	        0.0000000000	        0.0000000000	        0.0000000000	        0.0000000000	
        0.1971410582	      -38.0895932422	      606.7421705827	      -20.0515000431	        0.2779229776	        0.0000000000	        0.0516979625	       -0.0574417647	        0.0258852787	        0.0041233675	        0.0000000000	        0.0000000000	        0.0000000000	        0.0000000000	        0.0000000000	        0.0000000000	        0.0000000000	        0.0000000000	        0.0000000000	
        0.2094623743	      -31.6654011833	      596.6237562948	      -20.0075575580	        0.2831851737	        0.0000000000	        0.0515243634	       -0.0722133233	        0.0317359077	        0.0050729619	        0.0000000000	        0.0000000000	        0.0000000000	        0.0000000000	        0.0000000000	        0.0000000000	        0.0000000000	        0.0000000000	        0.0000000000	
        0.2217836905	      -26.7666547270	      590.5308217176	      -19.6606904364	        0.2891033081	        0.0000000000	        0.0512521382	       -0.1055468885	        0.0453192552	        0.0072231951	        0.0000000000	        0.0000000000	        0.0000000000	        0.0000000000	        0.0000000000	        0.0000000000	        0.0000000000	        0.0000000000	        0.0000000000	
        0.2341050066	      -23.4678287053	      587.5969306801	      -19.2614804305	        0.2954210440	        0.0000000000	        0.0508786621	       -0.1716981407	        0.0721451025	        0.0113322055	        0.0000000000	        0.0000000000	        0.0000000000	        0.0000000000	        0.0000000000	        0.0000000000	        0.0000000000	        0.0000000000	        0.0000000000	
